<svg width="27" height="32" viewBox="0 0 27 32" fill="none" xmlns="http://www.w3.org/2000/svg">
<path d="M27 25.5V27H0V25.5L3 22.5V13.5C3 8.85 6.045 4.755 10.5 3.435V3C10.5 2.20435 10.8161 1.44129 11.3787 0.87868C11.9413 0.31607 12.7044 0 13.5 0C14.2956 0 15.0587 0.31607 15.6213 0.87868C16.1839 1.44129 16.5 2.20435 16.5 3V3.435C20.955 4.755 24 8.85 24 13.5V22.5L27 25.5ZM16.5 28.5C16.5 29.2956 16.1839 30.0587 15.6213 30.6213C15.0587 31.1839 14.2956 31.5 13.5 31.5C12.7044 31.5 11.9413 31.1839 11.3787 30.6213C10.8161 30.0587 10.5 29.2956 10.5 28.5" fill="#525243"/>
</svg>
