<svg width="205" height="44" viewBox="0 0 205 44" fill="none" xmlns="http://www.w3.org/2000/svg">
<path d="M0.666696 33V2.424H9.2977C13.2317 2.424 16.1647 2.991 18.0967 4.125C20.0427 5.259 21.0157 7.149 21.0157 9.795C21.0157 11.755 20.6097 13.281 19.7977 14.373C18.9997 15.451 17.7607 16.277 16.0807 16.851C18.1667 17.257 19.7487 18.055 20.8267 19.245C21.9187 20.435 22.4647 22.199 22.4647 24.537C22.4647 27.575 21.4077 29.745 19.2937 31.047C17.1937 32.349 14.3237 33 10.6837 33H0.666696ZM4.2787 15.675H8.9617C11.9297 15.675 14.0437 15.262 15.3037 14.436C16.5777 13.61 17.2147 12.259 17.2147 10.383C17.2147 8.633 16.6127 7.387 15.4087 6.645C14.2047 5.903 12.1677 5.532 9.2977 5.532H4.2787V15.675ZM4.2787 29.892H10.5577C13.3717 29.892 15.4227 29.479 16.7107 28.653C17.9987 27.813 18.6427 26.42 18.6427 24.474C18.6427 22.416 17.9427 20.932 16.5427 20.022C15.1567 19.098 12.8397 18.636 9.5917 18.636H4.2787V29.892ZM37.3091 33.462C35.0831 33.462 33.1371 33 31.4711 32.076C29.8051 31.138 28.5031 29.829 27.5651 28.149C26.6411 26.469 26.1791 24.509 26.1791 22.269C26.1791 20.015 26.6411 18.041 27.5651 16.347C28.4891 14.653 29.7841 13.337 31.4501 12.399C33.1301 11.461 35.0761 10.992 37.2881 10.992C39.4861 10.992 41.4041 11.461 43.0421 12.399C44.6801 13.337 45.9541 14.646 46.8641 16.326C47.7741 18.006 48.2291 19.973 48.2291 22.227C48.2291 24.467 47.7741 26.434 46.8641 28.128C45.9541 29.808 44.6801 31.117 43.0421 32.055C41.4041 32.993 39.4931 33.462 37.3091 33.462ZM37.3091 30.564C39.5211 30.564 41.2991 29.808 42.6431 28.296C43.9871 26.77 44.6591 24.761 44.6591 22.269C44.6591 19.763 43.9801 17.754 42.6221 16.242C41.2781 14.716 39.5001 13.953 37.2881 13.953C35.0341 13.953 33.2141 14.723 31.8281 16.263C30.4421 17.789 29.7491 19.805 29.7491 22.311C29.7491 24.789 30.4421 26.784 31.8281 28.296C33.2141 29.808 35.0411 30.564 37.3091 30.564ZM60.7129 33.462C58.9629 33.462 57.4299 33.063 56.1139 32.265C54.8119 31.453 53.7969 30.326 53.0689 28.884C52.3409 27.428 51.9769 25.734 51.9769 23.802C51.9769 21.24 52.4809 19 53.4889 17.082C54.4969 15.164 55.9039 13.673 57.7099 12.609C59.5299 11.531 61.6509 10.992 64.0729 10.992C65.4869 10.992 66.8799 11.16 68.2519 11.496C69.6239 11.818 70.7299 12.252 71.5699 12.798V26.994C71.5699 27.918 71.8079 28.667 72.2839 29.241C72.7739 29.801 73.4109 30.081 74.1949 30.081L73.4809 33.084C72.2629 33.084 71.2059 32.755 70.3099 32.097C69.4139 31.439 68.8469 30.578 68.6089 29.514C67.8949 30.704 66.8169 31.663 65.3749 32.391C63.9329 33.105 62.3789 33.462 60.7129 33.462ZM61.2379 30.564C62.6239 30.564 63.8279 30.256 64.8499 29.64C65.8859 29.01 66.6909 28.163 67.2649 27.099C67.8389 26.035 68.1259 24.831 68.1259 23.487V14.688C67.6919 14.464 67.0969 14.289 66.3409 14.163C65.5849 14.023 64.8079 13.953 64.0099 13.953C62.3159 13.953 60.8319 14.359 59.5579 15.171C58.2979 15.969 57.3109 17.089 56.5969 18.531C55.8969 19.973 55.5469 21.66 55.5469 23.592C55.5469 25.678 56.0649 27.365 57.1009 28.653C58.1509 29.927 59.5299 30.564 61.2379 30.564ZM79.2786 33V18.321C79.2786 17.103 79.0686 16.039 78.6486 15.129C78.2286 14.219 77.7736 13.358 77.2836 12.546L80.7486 11.454C81.1266 12.028 81.4696 12.609 81.7776 13.197C82.0856 13.771 82.2956 14.394 82.4076 15.066C82.9676 13.932 83.7866 12.973 84.8646 12.189C85.9566 11.391 87.1676 10.992 88.4976 10.992C89.3656 10.992 90.0236 11.034 90.4716 11.118C90.9336 11.202 91.3536 11.3 91.7316 11.412L91.4376 14.457C91.2556 14.387 90.9266 14.289 90.4506 14.163C89.9746 14.023 89.2886 13.953 88.3926 13.953C86.8666 13.953 85.5366 14.527 84.4026 15.675C83.2826 16.809 82.7226 18.608 82.7226 21.072V33H79.2786ZM103.663 33.462C101.689 33.462 99.9598 33.007 98.4758 32.097C96.9918 31.187 95.8368 29.906 95.0108 28.254C94.1848 26.602 93.7718 24.677 93.7718 22.479C93.7718 20.309 94.1428 18.363 94.8848 16.641C95.6408 14.905 96.7538 13.533 98.2238 12.525C99.6938 11.503 101.507 10.992 103.663 10.992C105.049 10.992 106.316 11.202 107.464 11.622C108.612 12.042 109.76 12.749 110.908 13.743V1.374L114.373 0.954V24.81C114.373 26.406 114.457 27.708 114.625 28.716C114.807 29.71 115.038 30.522 115.318 31.152C115.612 31.782 115.913 32.328 116.221 32.79L112.819 33.273C112.427 32.797 112.063 32.188 111.727 31.446C111.405 30.69 111.223 29.969 111.181 29.283C110.551 30.599 109.564 31.628 108.22 32.37C106.876 33.098 105.357 33.462 103.663 33.462ZM104.041 30.564C105.721 30.564 107.065 30.179 108.073 29.409C109.081 28.639 109.809 27.596 110.257 26.28C110.705 24.95 110.929 23.452 110.929 21.786V17.376C110.145 16.326 109.13 15.493 107.884 14.877C106.652 14.261 105.413 13.953 104.167 13.953C102.585 13.953 101.29 14.324 100.282 15.066C99.2738 15.808 98.5318 16.816 98.0558 18.09C97.5798 19.35 97.3418 20.771 97.3418 22.353C97.3418 23.977 97.6218 25.412 98.1818 26.658C98.7558 27.89 99.5468 28.849 100.555 29.535C101.563 30.221 102.725 30.564 104.041 30.564ZM132.76 32.265C131.346 32.881 129.946 33.238 128.56 33.336C127.188 33.448 125.942 33.287 124.822 32.853C123.716 32.405 122.827 31.677 122.155 30.669C121.497 29.647 121.168 28.324 121.168 26.7V1.584L124.612 0.954V26.868C124.612 28.324 124.99 29.346 125.746 29.934C126.502 30.522 127.461 30.781 128.623 30.711C129.799 30.627 131.003 30.326 132.235 29.808L132.76 32.265ZM143.103 43.374C142.039 43.374 140.863 43.255 139.575 43.017C138.287 42.793 137.111 42.485 136.047 42.093L136.446 38.88C137.412 39.356 138.476 39.741 139.638 40.035C140.814 40.343 141.871 40.497 142.809 40.497C145.007 40.497 146.778 39.895 148.122 38.691C149.466 37.487 150.138 35.898 150.138 33.924V30.312C148.528 32.412 146.232 33.462 143.25 33.462C141.892 33.462 140.597 33.203 139.365 32.685C138.133 32.153 137.139 31.292 136.383 30.102C135.627 28.912 135.277 27.323 135.333 25.335L135.459 20.778C135.529 18.538 135.459 16.795 135.249 15.549C135.053 14.303 134.843 13.421 134.619 12.903C134.395 12.371 134.262 12.07 134.22 12L137.685 11.454C137.713 11.524 137.839 11.804 138.063 12.294C138.301 12.784 138.518 13.673 138.714 14.961C138.924 16.235 138.994 18.083 138.924 20.505L138.798 25.335C138.77 26.707 138.994 27.771 139.47 28.527C139.946 29.283 140.569 29.815 141.339 30.123C142.109 30.417 142.921 30.564 143.775 30.564C144.937 30.564 145.994 30.305 146.946 29.787C147.912 29.269 148.682 28.527 149.256 27.561C149.844 26.581 150.138 25.405 150.138 24.033V11.454H153.582V33.483C153.582 35.457 153.141 37.186 152.259 38.67C151.391 40.154 150.173 41.309 148.605 42.135C147.037 42.961 145.203 43.374 143.103 43.374ZM161.137 33C160.409 33 159.849 32.783 159.457 32.349C159.079 31.901 158.89 31.376 158.89 30.774C158.89 30.074 159.128 29.535 159.604 29.157C160.08 28.765 160.598 28.569 161.158 28.569C161.886 28.569 162.439 28.793 162.817 29.241C163.209 29.675 163.405 30.193 163.405 30.795C163.405 31.481 163.167 32.02 162.691 32.412C162.229 32.804 161.711 33 161.137 33ZM176.301 33.105C175.307 33.105 174.383 32.916 173.529 32.538C172.675 32.16 171.989 31.537 171.471 30.669C170.953 29.801 170.694 28.632 170.694 27.162V11.454H174.159V27.057C174.159 28.527 174.418 29.472 174.936 29.892C175.454 30.312 176.07 30.522 176.784 30.522C177.106 30.522 177.526 30.48 178.044 30.396C178.562 30.298 179.003 30.179 179.367 30.039L179.787 32.37C179.269 32.58 178.681 32.755 178.023 32.895C177.365 33.035 176.791 33.105 176.301 33.105ZM170.631 7.002V3.243H174.327V7.002H170.631ZM204.096 33.399C202.57 33.623 201.408 33.539 200.61 33.147C199.812 32.755 199.266 32.055 198.972 31.047C198.678 30.025 198.531 28.688 198.531 27.036V21.198C198.531 18.65 198.181 16.809 197.481 15.675C196.781 14.527 195.619 13.953 193.995 13.953C192.987 13.953 191.958 14.205 190.908 14.709C189.872 15.199 188.983 15.976 188.241 17.04C187.513 18.09 187.093 19.455 186.981 21.135V33H183.537V18.321C183.537 17.103 183.327 16.039 182.907 15.129C182.487 14.219 182.032 13.358 181.542 12.546L185.007 11.454C185.385 12.028 185.728 12.616 186.036 13.218C186.358 13.806 186.568 14.443 186.666 15.129C187.296 13.883 188.367 12.882 189.879 12.126C191.405 11.37 193.022 10.992 194.73 10.992C197.166 10.992 198.986 11.797 200.19 13.407C201.394 15.003 201.996 17.579 201.996 21.135V26.28C201.996 27.344 202.017 28.219 202.059 28.905C202.101 29.591 202.29 30.074 202.626 30.354C202.962 30.62 203.564 30.669 204.432 30.501L204.096 33.399Z" fill="#F14A16"/>
</svg>
